<mxfile host="app.diagrams.net" modified="2023-12-19T22:53:40.510Z" agent="Mozilla/5.0 (Windows NT 10.0; Win64; x64) AppleWebKit/537.36 (KHTML, like Gecko) Chrome/120.0.0.0 Safari/537.36" etag="eHkVli8aElwUz8JM8_wP" version="22.1.11" type="device">
  <diagram name="Page-1" id="2YBvvXClWsGukQMizWep">
    <mxGraphModel dx="2433" dy="521" grid="1" gridSize="10" guides="1" tooltips="1" connect="1" arrows="1" fold="1" page="1" pageScale="1" pageWidth="850" pageHeight="1100" math="0" shadow="0">
      <root>
        <mxCell id="0" />
        <mxCell id="1" parent="0" />
        <mxCell id="vSRh9-Tb_zqnj6JukAAc-1" value="&lt;u&gt;ID&lt;/u&gt;" style="rounded=0;whiteSpace=wrap;html=1;" parent="1" vertex="1">
          <mxGeometry x="7" y="36" width="70" height="40" as="geometry" />
        </mxCell>
        <mxCell id="vSRh9-Tb_zqnj6JukAAc-7" value="member:" style="text;html=1;align=center;verticalAlign=middle;resizable=0;points=[];autosize=1;strokeColor=none;fillColor=none;" parent="1" vertex="1">
          <mxGeometry x="-3" y="6" width="70" height="30" as="geometry" />
        </mxCell>
        <mxCell id="vSRh9-Tb_zqnj6JukAAc-8" value="Name" style="rounded=0;whiteSpace=wrap;html=1;" parent="1" vertex="1">
          <mxGeometry x="77" y="36" width="60" height="40" as="geometry" />
        </mxCell>
        <mxCell id="vSRh9-Tb_zqnj6JukAAc-9" value="Gender" style="rounded=0;whiteSpace=wrap;html=1;" parent="1" vertex="1">
          <mxGeometry x="137" y="36" width="60" height="40" as="geometry" />
        </mxCell>
        <mxCell id="vSRh9-Tb_zqnj6JukAAc-10" value="Phone Number" style="rounded=0;whiteSpace=wrap;html=1;" parent="1" vertex="1">
          <mxGeometry x="197" y="36" width="100" height="40" as="geometry" />
        </mxCell>
        <mxCell id="vSRh9-Tb_zqnj6JukAAc-11" value="Email" style="rounded=0;whiteSpace=wrap;html=1;" parent="1" vertex="1">
          <mxGeometry x="297" y="36" width="50" height="40" as="geometry" />
        </mxCell>
        <mxCell id="vSRh9-Tb_zqnj6JukAAc-12" value="Customer:" style="text;html=1;strokeColor=none;fillColor=none;align=center;verticalAlign=middle;whiteSpace=wrap;rounded=0;" parent="1" vertex="1">
          <mxGeometry x="7" y="348" width="60" height="30" as="geometry" />
        </mxCell>
        <mxCell id="vSRh9-Tb_zqnj6JukAAc-29" style="edgeStyle=orthogonalEdgeStyle;rounded=0;orthogonalLoop=1;jettySize=auto;html=1;exitX=0;exitY=0.25;exitDx=0;exitDy=0;entryX=0.25;entryY=1;entryDx=0;entryDy=0;" parent="1" source="vSRh9-Tb_zqnj6JukAAc-13" target="vSRh9-Tb_zqnj6JukAAc-1" edge="1">
          <mxGeometry relative="1" as="geometry">
            <Array as="points">
              <mxPoint x="7" y="366" />
              <mxPoint x="-23" y="366" />
              <mxPoint x="-23" y="96" />
              <mxPoint x="25" y="96" />
            </Array>
          </mxGeometry>
        </mxCell>
        <mxCell id="e0XxsXH3Iiw3S5kKki8L-12" style="edgeStyle=orthogonalEdgeStyle;rounded=0;orthogonalLoop=1;jettySize=auto;html=1;exitX=0.75;exitY=0;exitDx=0;exitDy=0;entryX=0.5;entryY=1;entryDx=0;entryDy=0;" parent="1" source="vSRh9-Tb_zqnj6JukAAc-13" target="28l4l87aZi_P1t-qfPdV-16" edge="1">
          <mxGeometry relative="1" as="geometry">
            <Array as="points">
              <mxPoint x="67" y="340" />
              <mxPoint x="591" y="340" />
            </Array>
          </mxGeometry>
        </mxCell>
        <mxCell id="vSRh9-Tb_zqnj6JukAAc-13" value="&lt;u&gt;Customer ID&lt;/u&gt;" style="rounded=0;whiteSpace=wrap;html=1;" parent="1" vertex="1">
          <mxGeometry x="7" y="378" width="80" height="40" as="geometry" />
        </mxCell>
        <mxCell id="vSRh9-Tb_zqnj6JukAAc-24" value="Weight" style="rounded=0;whiteSpace=wrap;html=1;" parent="1" vertex="1">
          <mxGeometry x="87" y="378" width="50" height="40" as="geometry" />
        </mxCell>
        <mxCell id="vSRh9-Tb_zqnj6JukAAc-25" value="Height" style="rounded=0;whiteSpace=wrap;html=1;" parent="1" vertex="1">
          <mxGeometry x="137" y="378" width="40" height="40" as="geometry" />
        </mxCell>
        <mxCell id="vSRh9-Tb_zqnj6JukAAc-27" value="Target" style="rounded=0;whiteSpace=wrap;html=1;" parent="1" vertex="1">
          <mxGeometry x="227" y="378" width="50" height="40" as="geometry" />
        </mxCell>
        <mxCell id="vSRh9-Tb_zqnj6JukAAc-30" value="Trainer:" style="text;html=1;strokeColor=none;fillColor=none;align=center;verticalAlign=middle;whiteSpace=wrap;rounded=0;" parent="1" vertex="1">
          <mxGeometry x="7" y="126" width="45" height="30" as="geometry" />
        </mxCell>
        <mxCell id="vSRh9-Tb_zqnj6JukAAc-31" value="&lt;u&gt;Trainer ID&lt;/u&gt;" style="rounded=0;whiteSpace=wrap;html=1;" parent="1" vertex="1">
          <mxGeometry x="7" y="156" width="70" height="40" as="geometry" />
        </mxCell>
        <mxCell id="vSRh9-Tb_zqnj6JukAAc-33" style="edgeStyle=orthogonalEdgeStyle;rounded=0;orthogonalLoop=1;jettySize=auto;html=1;exitX=0.75;exitY=0;exitDx=0;exitDy=0;entryX=0.403;entryY=1.022;entryDx=0;entryDy=0;entryPerimeter=0;" parent="1" source="vSRh9-Tb_zqnj6JukAAc-31" target="vSRh9-Tb_zqnj6JukAAc-1" edge="1">
          <mxGeometry relative="1" as="geometry" />
        </mxCell>
        <mxCell id="28l4l87aZi_P1t-qfPdV-2" value="Trainer Respond Time Rate" style="rounded=0;whiteSpace=wrap;html=1;" parent="1" vertex="1">
          <mxGeometry x="78" y="156" width="110" height="40" as="geometry" />
        </mxCell>
        <mxCell id="28l4l87aZi_P1t-qfPdV-3" value="&lt;u&gt;Certification&lt;/u&gt;" style="rounded=0;whiteSpace=wrap;html=1;" parent="1" vertex="1">
          <mxGeometry x="7" y="276" width="70" height="40" as="geometry" />
        </mxCell>
        <mxCell id="28l4l87aZi_P1t-qfPdV-4" value="Trainer Certification:" style="text;html=1;strokeColor=none;fillColor=none;align=center;verticalAlign=middle;whiteSpace=wrap;rounded=0;" parent="1" vertex="1">
          <mxGeometry x="7" y="236" width="60" height="30" as="geometry" />
        </mxCell>
        <mxCell id="28l4l87aZi_P1t-qfPdV-6" style="edgeStyle=orthogonalEdgeStyle;rounded=0;orthogonalLoop=1;jettySize=auto;html=1;exitX=0.25;exitY=0;exitDx=0;exitDy=0;entryX=0.5;entryY=1;entryDx=0;entryDy=0;" parent="1" source="28l4l87aZi_P1t-qfPdV-5" target="vSRh9-Tb_zqnj6JukAAc-31" edge="1">
          <mxGeometry relative="1" as="geometry" />
        </mxCell>
        <mxCell id="28l4l87aZi_P1t-qfPdV-5" value="&lt;u&gt;Trainer ID&lt;/u&gt;" style="rounded=0;whiteSpace=wrap;html=1;" parent="1" vertex="1">
          <mxGeometry x="77" y="276" width="90" height="40" as="geometry" />
        </mxCell>
        <mxCell id="28l4l87aZi_P1t-qfPdV-7" value="&lt;u&gt;Specialization&lt;/u&gt;" style="rounded=0;whiteSpace=wrap;html=1;" parent="1" vertex="1">
          <mxGeometry x="207" y="276" width="80" height="40" as="geometry" />
        </mxCell>
        <mxCell id="28l4l87aZi_P1t-qfPdV-8" value="Trainer Specialization:" style="text;html=1;strokeColor=none;fillColor=none;align=center;verticalAlign=middle;whiteSpace=wrap;rounded=0;" parent="1" vertex="1">
          <mxGeometry x="207" y="236" width="75" height="30" as="geometry" />
        </mxCell>
        <mxCell id="28l4l87aZi_P1t-qfPdV-9" value="&lt;u&gt;Trainer ID&lt;/u&gt;" style="rounded=0;whiteSpace=wrap;html=1;" parent="1" vertex="1">
          <mxGeometry x="287" y="276" width="60" height="40" as="geometry" />
        </mxCell>
        <mxCell id="28l4l87aZi_P1t-qfPdV-10" style="edgeStyle=orthogonalEdgeStyle;rounded=0;orthogonalLoop=1;jettySize=auto;html=1;exitX=0.5;exitY=0;exitDx=0;exitDy=0;entryX=0.622;entryY=1.027;entryDx=0;entryDy=0;entryPerimeter=0;" parent="1" source="28l4l87aZi_P1t-qfPdV-9" target="vSRh9-Tb_zqnj6JukAAc-31" edge="1">
          <mxGeometry relative="1" as="geometry">
            <Array as="points">
              <mxPoint x="317" y="226" />
              <mxPoint x="50" y="226" />
            </Array>
          </mxGeometry>
        </mxCell>
        <mxCell id="28l4l87aZi_P1t-qfPdV-11" value="Level" style="rounded=0;whiteSpace=wrap;html=1;" parent="1" vertex="1">
          <mxGeometry x="177" y="378" width="50" height="40" as="geometry" />
        </mxCell>
        <mxCell id="28l4l87aZi_P1t-qfPdV-13" value="Progress tracking" style="text;html=1;strokeColor=none;fillColor=none;align=center;verticalAlign=middle;whiteSpace=wrap;rounded=0;" parent="1" vertex="1">
          <mxGeometry x="470" y="107" width="60" height="30" as="geometry" />
        </mxCell>
        <mxCell id="28l4l87aZi_P1t-qfPdV-14" value="&lt;u&gt;ID&lt;/u&gt;" style="rounded=0;whiteSpace=wrap;html=1;" parent="1" vertex="1">
          <mxGeometry x="516" y="156" width="50" height="40" as="geometry" />
        </mxCell>
        <mxCell id="28l4l87aZi_P1t-qfPdV-16" value="&lt;u&gt;Cust ID&lt;/u&gt;" style="rounded=0;whiteSpace=wrap;html=1;" parent="1" vertex="1">
          <mxGeometry x="566" y="156" width="50" height="40" as="geometry" />
        </mxCell>
        <mxCell id="28l4l87aZi_P1t-qfPdV-20" value="B Date" style="rounded=0;whiteSpace=wrap;html=1;" parent="1" vertex="1">
          <mxGeometry x="786" y="156" width="50" height="40" as="geometry" />
        </mxCell>
        <mxCell id="28l4l87aZi_P1t-qfPdV-22" value="B Weight" style="rounded=0;whiteSpace=wrap;html=1;" parent="1" vertex="1">
          <mxGeometry x="726" y="156" width="60" height="40" as="geometry" />
        </mxCell>
        <mxCell id="28l4l87aZi_P1t-qfPdV-24" value="Goal Achieving Rate" style="rounded=0;whiteSpace=wrap;html=1;" parent="1" vertex="1">
          <mxGeometry x="616" y="156" width="110" height="40" as="geometry" />
        </mxCell>
        <mxCell id="28l4l87aZi_P1t-qfPdV-28" value="A Weight" style="rounded=0;whiteSpace=wrap;html=1;" parent="1" vertex="1">
          <mxGeometry x="886" y="156" width="50" height="40" as="geometry" />
        </mxCell>
        <mxCell id="28l4l87aZi_P1t-qfPdV-29" value="A Date" style="rounded=0;whiteSpace=wrap;html=1;" parent="1" vertex="1">
          <mxGeometry x="836" y="156" width="50" height="40" as="geometry" />
        </mxCell>
        <mxCell id="28l4l87aZi_P1t-qfPdV-34" value="salary" style="rounded=0;whiteSpace=wrap;html=1;" parent="1" vertex="1">
          <mxGeometry x="188" y="156" width="50" height="40" as="geometry" />
        </mxCell>
        <mxCell id="28l4l87aZi_P1t-qfPdV-52" value="Feedback:" style="text;html=1;align=center;verticalAlign=middle;resizable=0;points=[];autosize=1;strokeColor=none;fillColor=none;" parent="1" vertex="1">
          <mxGeometry x="2" y="836" width="80" height="30" as="geometry" />
        </mxCell>
        <mxCell id="k5Xd2jel9zV4bqxeKcXj-157" style="edgeStyle=orthogonalEdgeStyle;rounded=0;orthogonalLoop=1;jettySize=auto;html=1;entryX=0;entryY=0.75;entryDx=0;entryDy=0;" edge="1" parent="1" source="28l4l87aZi_P1t-qfPdV-54" target="vSRh9-Tb_zqnj6JukAAc-31">
          <mxGeometry relative="1" as="geometry">
            <Array as="points">
              <mxPoint x="-60" y="896" />
              <mxPoint x="-60" y="536" />
              <mxPoint x="-13" y="536" />
              <mxPoint x="-13" y="186" />
            </Array>
          </mxGeometry>
        </mxCell>
        <mxCell id="28l4l87aZi_P1t-qfPdV-54" value="&lt;u&gt;trainer_ID&lt;/u&gt;" style="rounded=0;whiteSpace=wrap;html=1;" parent="1" vertex="1">
          <mxGeometry x="7" y="876" width="70" height="40" as="geometry" />
        </mxCell>
        <mxCell id="28l4l87aZi_P1t-qfPdV-55" value="Customer rate trainer" style="rounded=0;whiteSpace=wrap;html=1;" parent="1" vertex="1">
          <mxGeometry x="77" y="876" width="70" height="40" as="geometry" />
        </mxCell>
        <mxCell id="28l4l87aZi_P1t-qfPdV-56" value="&lt;u&gt;Customer ID&lt;/u&gt;" style="rounded=0;whiteSpace=wrap;html=1;" parent="1" vertex="1">
          <mxGeometry x="147" y="876" width="60" height="40" as="geometry" />
        </mxCell>
        <mxCell id="28l4l87aZi_P1t-qfPdV-57" style="edgeStyle=orthogonalEdgeStyle;rounded=0;orthogonalLoop=1;jettySize=auto;html=1;exitX=0.5;exitY=0;exitDx=0;exitDy=0;entryX=0.642;entryY=1.047;entryDx=0;entryDy=0;entryPerimeter=0;" parent="1" source="28l4l87aZi_P1t-qfPdV-56" target="vSRh9-Tb_zqnj6JukAAc-13" edge="1">
          <mxGeometry relative="1" as="geometry">
            <Array as="points">
              <mxPoint x="177" y="686" />
              <mxPoint x="207" y="686" />
              <mxPoint x="207" y="456" />
              <mxPoint x="58" y="456" />
            </Array>
          </mxGeometry>
        </mxCell>
        <mxCell id="28l4l87aZi_P1t-qfPdV-73" value="Nutrition Program:" style="text;html=1;align=center;verticalAlign=middle;resizable=0;points=[];autosize=1;strokeColor=none;fillColor=none;" parent="1" vertex="1">
          <mxGeometry x="-800" y="107" width="120" height="30" as="geometry" />
        </mxCell>
        <mxCell id="28l4l87aZi_P1t-qfPdV-74" value="&lt;u&gt;ID&lt;/u&gt;" style="rounded=0;whiteSpace=wrap;html=1;" parent="1" vertex="1">
          <mxGeometry x="-711" y="158" width="50" height="40" as="geometry" />
        </mxCell>
        <mxCell id="28l4l87aZi_P1t-qfPdV-77" value="nType" style="rounded=0;whiteSpace=wrap;html=1;" parent="1" vertex="1">
          <mxGeometry x="-661" y="158" width="50" height="40" as="geometry" />
        </mxCell>
        <mxCell id="28l4l87aZi_P1t-qfPdV-79" value="Calories" style="rounded=0;whiteSpace=wrap;html=1;" parent="1" vertex="1">
          <mxGeometry x="-611" y="158" width="50" height="40" as="geometry" />
        </mxCell>
        <mxCell id="28l4l87aZi_P1t-qfPdV-80" value="Plan Notes" style="rounded=0;whiteSpace=wrap;html=1;" parent="1" vertex="1">
          <mxGeometry x="-561" y="158" width="50" height="40" as="geometry" />
        </mxCell>
        <mxCell id="28l4l87aZi_P1t-qfPdV-85" value="Workout:" style="text;html=1;align=center;verticalAlign=middle;resizable=0;points=[];autosize=1;strokeColor=none;fillColor=none;" parent="1" vertex="1">
          <mxGeometry x="-786" y="213.5" width="70" height="30" as="geometry" />
        </mxCell>
        <mxCell id="28l4l87aZi_P1t-qfPdV-86" value="&lt;u&gt;ID&lt;/u&gt;" style="rounded=0;whiteSpace=wrap;html=1;" parent="1" vertex="1">
          <mxGeometry x="-776" y="248.5" width="50" height="40" as="geometry" />
        </mxCell>
        <mxCell id="28l4l87aZi_P1t-qfPdV-87" value="price" style="rounded=0;whiteSpace=wrap;html=1;" parent="1" vertex="1">
          <mxGeometry x="-726" y="248.5" width="90" height="40" as="geometry" />
        </mxCell>
        <mxCell id="28l4l87aZi_P1t-qfPdV-88" value="Plan note" style="rounded=0;whiteSpace=wrap;html=1;" parent="1" vertex="1">
          <mxGeometry x="-636" y="248.5" width="50" height="40" as="geometry" />
        </mxCell>
        <mxCell id="28l4l87aZi_P1t-qfPdV-90" value="wtype" style="rounded=0;whiteSpace=wrap;html=1;" parent="1" vertex="1">
          <mxGeometry x="-586" y="248.5" width="50" height="40" as="geometry" />
        </mxCell>
        <mxCell id="28l4l87aZi_P1t-qfPdV-94" value="customer_takes_supplements" style="text;html=1;align=center;verticalAlign=middle;resizable=0;points=[];autosize=1;strokeColor=none;fillColor=none;" parent="1" vertex="1">
          <mxGeometry x="-800" y="431" width="180" height="30" as="geometry" />
        </mxCell>
        <mxCell id="k5Xd2jel9zV4bqxeKcXj-127" style="edgeStyle=orthogonalEdgeStyle;rounded=0;orthogonalLoop=1;jettySize=auto;html=1;entryX=0.5;entryY=0;entryDx=0;entryDy=0;" edge="1" parent="1" source="28l4l87aZi_P1t-qfPdV-95" target="28l4l87aZi_P1t-qfPdV-99">
          <mxGeometry relative="1" as="geometry">
            <Array as="points">
              <mxPoint x="-665" y="550" />
              <mxPoint x="-671" y="550" />
            </Array>
          </mxGeometry>
        </mxCell>
        <mxCell id="28l4l87aZi_P1t-qfPdV-95" value="&lt;u&gt;supplement_id&lt;/u&gt;" style="rounded=0;whiteSpace=wrap;html=1;" parent="1" vertex="1">
          <mxGeometry x="-711" y="476" width="91" height="40" as="geometry" />
        </mxCell>
        <mxCell id="28l4l87aZi_P1t-qfPdV-96" value="&lt;u&gt;customer_id&lt;br&gt;&lt;/u&gt;" style="rounded=0;whiteSpace=wrap;html=1;" parent="1" vertex="1">
          <mxGeometry x="-621" y="476" width="120" height="40" as="geometry" />
        </mxCell>
        <mxCell id="28l4l87aZi_P1t-qfPdV-98" value="Supplements:" style="text;html=1;align=center;verticalAlign=middle;resizable=0;points=[];autosize=1;strokeColor=none;fillColor=none;" parent="1" vertex="1">
          <mxGeometry x="-806" y="556" width="100" height="30" as="geometry" />
        </mxCell>
        <mxCell id="28l4l87aZi_P1t-qfPdV-99" value="&lt;u&gt;ID&lt;/u&gt;" style="rounded=0;whiteSpace=wrap;html=1;" parent="1" vertex="1">
          <mxGeometry x="-711" y="596" width="80" height="40" as="geometry" />
        </mxCell>
        <mxCell id="28l4l87aZi_P1t-qfPdV-100" value="name" style="rounded=0;whiteSpace=wrap;html=1;" parent="1" vertex="1">
          <mxGeometry x="-631" y="596" width="50" height="40" as="geometry" />
        </mxCell>
        <mxCell id="28l4l87aZi_P1t-qfPdV-101" value="price" style="rounded=0;whiteSpace=wrap;html=1;" parent="1" vertex="1">
          <mxGeometry x="-581" y="596" width="50" height="40" as="geometry" />
        </mxCell>
        <mxCell id="28l4l87aZi_P1t-qfPdV-103" value="Far Burners" style="rounded=0;whiteSpace=wrap;html=1;" parent="1" vertex="1">
          <mxGeometry x="-531" y="596" width="50" height="40" as="geometry" />
        </mxCell>
        <mxCell id="k5Xd2jel9zV4bqxeKcXj-125" value="Dbirth" style="rounded=0;whiteSpace=wrap;html=1;" vertex="1" parent="1">
          <mxGeometry x="347" y="36" width="50" height="40" as="geometry" />
        </mxCell>
        <mxCell id="k5Xd2jel9zV4bqxeKcXj-126" value="Disease" style="rounded=0;whiteSpace=wrap;html=1;" vertex="1" parent="1">
          <mxGeometry x="277" y="378" width="50" height="40" as="geometry" />
        </mxCell>
        <mxCell id="k5Xd2jel9zV4bqxeKcXj-128" value="frequency" style="rounded=0;whiteSpace=wrap;html=1;" vertex="1" parent="1">
          <mxGeometry x="-506" y="476" width="120" height="40" as="geometry" />
        </mxCell>
        <mxCell id="k5Xd2jel9zV4bqxeKcXj-129" style="edgeStyle=orthogonalEdgeStyle;rounded=0;orthogonalLoop=1;jettySize=auto;html=1;entryX=0.115;entryY=1;entryDx=0;entryDy=0;entryPerimeter=0;" edge="1" parent="1" source="28l4l87aZi_P1t-qfPdV-96" target="vSRh9-Tb_zqnj6JukAAc-13">
          <mxGeometry relative="1" as="geometry">
            <Array as="points">
              <mxPoint x="-561" y="450" />
              <mxPoint x="16" y="450" />
            </Array>
          </mxGeometry>
        </mxCell>
        <mxCell id="k5Xd2jel9zV4bqxeKcXj-132" value="price" style="rounded=0;whiteSpace=wrap;html=1;" vertex="1" parent="1">
          <mxGeometry x="-511" y="158" width="50" height="40" as="geometry" />
        </mxCell>
        <mxCell id="k5Xd2jel9zV4bqxeKcXj-133" value="nutrition_trainer_customer" style="text;html=1;align=center;verticalAlign=middle;resizable=0;points=[];autosize=1;strokeColor=none;fillColor=none;" vertex="1" parent="1">
          <mxGeometry x="-545" y="20" width="160" height="30" as="geometry" />
        </mxCell>
        <mxCell id="k5Xd2jel9zV4bqxeKcXj-142" style="edgeStyle=orthogonalEdgeStyle;rounded=0;orthogonalLoop=1;jettySize=auto;html=1;entryX=0.75;entryY=0;entryDx=0;entryDy=0;" edge="1" parent="1" source="k5Xd2jel9zV4bqxeKcXj-134" target="28l4l87aZi_P1t-qfPdV-74">
          <mxGeometry relative="1" as="geometry" />
        </mxCell>
        <mxCell id="k5Xd2jel9zV4bqxeKcXj-134" value="&lt;u&gt;nutrition_id&lt;/u&gt;" style="rounded=0;whiteSpace=wrap;html=1;" vertex="1" parent="1">
          <mxGeometry x="-635.5" y="60" width="89" height="40" as="geometry" />
        </mxCell>
        <mxCell id="k5Xd2jel9zV4bqxeKcXj-135" value="Effectiveness" style="rounded=0;whiteSpace=wrap;html=1;" vertex="1" parent="1">
          <mxGeometry x="-246.5" y="60" width="90" height="40" as="geometry" />
        </mxCell>
        <mxCell id="k5Xd2jel9zV4bqxeKcXj-136" value="start_date" style="rounded=0;whiteSpace=wrap;html=1;" vertex="1" parent="1">
          <mxGeometry x="-386.5" y="60" width="70" height="40" as="geometry" />
        </mxCell>
        <mxCell id="k5Xd2jel9zV4bqxeKcXj-144" style="edgeStyle=orthogonalEdgeStyle;rounded=0;orthogonalLoop=1;jettySize=auto;html=1;entryX=0;entryY=0.25;entryDx=0;entryDy=0;" edge="1" parent="1" source="k5Xd2jel9zV4bqxeKcXj-137" target="vSRh9-Tb_zqnj6JukAAc-13">
          <mxGeometry relative="1" as="geometry">
            <Array as="points">
              <mxPoint x="-501" y="120" />
              <mxPoint x="-380" y="120" />
              <mxPoint x="-380" y="390" />
              <mxPoint x="-220" y="390" />
              <mxPoint x="-220" y="388" />
            </Array>
          </mxGeometry>
        </mxCell>
        <mxCell id="k5Xd2jel9zV4bqxeKcXj-137" value="&lt;u&gt;Customer_ID&lt;/u&gt;" style="rounded=0;whiteSpace=wrap;html=1;" vertex="1" parent="1">
          <mxGeometry x="-546.5" y="60" width="90" height="40" as="geometry" />
        </mxCell>
        <mxCell id="k5Xd2jel9zV4bqxeKcXj-143" style="edgeStyle=orthogonalEdgeStyle;rounded=0;orthogonalLoop=1;jettySize=auto;html=1;entryX=0;entryY=0.5;entryDx=0;entryDy=0;" edge="1" parent="1" source="k5Xd2jel9zV4bqxeKcXj-138" target="vSRh9-Tb_zqnj6JukAAc-31">
          <mxGeometry relative="1" as="geometry">
            <Array as="points">
              <mxPoint x="-421" y="176" />
            </Array>
          </mxGeometry>
        </mxCell>
        <mxCell id="k5Xd2jel9zV4bqxeKcXj-138" value="&lt;u&gt;Trainer_ID&lt;/u&gt;" style="rounded=0;whiteSpace=wrap;html=1;" vertex="1" parent="1">
          <mxGeometry x="-456.5" y="60" width="70" height="40" as="geometry" />
        </mxCell>
        <mxCell id="k5Xd2jel9zV4bqxeKcXj-140" value="period" style="rounded=0;whiteSpace=wrap;html=1;" vertex="1" parent="1">
          <mxGeometry x="-316.5" y="60" width="70" height="40" as="geometry" />
        </mxCell>
        <mxCell id="k5Xd2jel9zV4bqxeKcXj-153" style="edgeStyle=orthogonalEdgeStyle;rounded=0;orthogonalLoop=1;jettySize=auto;html=1;exitX=0.5;exitY=0;exitDx=0;exitDy=0;entryX=0.5;entryY=1;entryDx=0;entryDy=0;" edge="1" parent="1" source="k5Xd2jel9zV4bqxeKcXj-145" target="28l4l87aZi_P1t-qfPdV-86">
          <mxGeometry relative="1" as="geometry" />
        </mxCell>
        <mxCell id="k5Xd2jel9zV4bqxeKcXj-145" value="&lt;u&gt;workout_id&lt;/u&gt;" style="rounded=0;whiteSpace=wrap;html=1;" vertex="1" parent="1">
          <mxGeometry x="-904" y="360" width="89" height="40" as="geometry" />
        </mxCell>
        <mxCell id="k5Xd2jel9zV4bqxeKcXj-146" value="Workout_Effectiveness" style="rounded=0;whiteSpace=wrap;html=1;" vertex="1" parent="1">
          <mxGeometry x="-515" y="360" width="115" height="40" as="geometry" />
        </mxCell>
        <mxCell id="k5Xd2jel9zV4bqxeKcXj-147" value="start_date" style="rounded=0;whiteSpace=wrap;html=1;" vertex="1" parent="1">
          <mxGeometry x="-655" y="360" width="70" height="40" as="geometry" />
        </mxCell>
        <mxCell id="k5Xd2jel9zV4bqxeKcXj-154" style="edgeStyle=orthogonalEdgeStyle;rounded=0;orthogonalLoop=1;jettySize=auto;html=1;entryX=0;entryY=0.5;entryDx=0;entryDy=0;" edge="1" parent="1" source="k5Xd2jel9zV4bqxeKcXj-148" target="vSRh9-Tb_zqnj6JukAAc-13">
          <mxGeometry relative="1" as="geometry">
            <Array as="points">
              <mxPoint x="-770" y="330" />
              <mxPoint x="-359" y="330" />
              <mxPoint x="-359" y="398" />
            </Array>
          </mxGeometry>
        </mxCell>
        <mxCell id="k5Xd2jel9zV4bqxeKcXj-148" value="&lt;u&gt;Customer_ID&lt;/u&gt;" style="rounded=0;whiteSpace=wrap;html=1;" vertex="1" parent="1">
          <mxGeometry x="-815" y="360" width="90" height="40" as="geometry" />
        </mxCell>
        <mxCell id="k5Xd2jel9zV4bqxeKcXj-155" style="edgeStyle=orthogonalEdgeStyle;rounded=0;orthogonalLoop=1;jettySize=auto;html=1;entryX=0.5;entryY=1;entryDx=0;entryDy=0;" edge="1" parent="1" source="k5Xd2jel9zV4bqxeKcXj-149" target="vSRh9-Tb_zqnj6JukAAc-31">
          <mxGeometry relative="1" as="geometry">
            <Array as="points">
              <mxPoint x="-690" y="320" />
              <mxPoint x="-20" y="320" />
              <mxPoint x="-20" y="196" />
            </Array>
          </mxGeometry>
        </mxCell>
        <mxCell id="k5Xd2jel9zV4bqxeKcXj-149" value="&lt;u&gt;Trainer_ID&lt;/u&gt;" style="rounded=0;whiteSpace=wrap;html=1;" vertex="1" parent="1">
          <mxGeometry x="-725" y="360" width="70" height="40" as="geometry" />
        </mxCell>
        <mxCell id="k5Xd2jel9zV4bqxeKcXj-150" value="period" style="rounded=0;whiteSpace=wrap;html=1;" vertex="1" parent="1">
          <mxGeometry x="-585" y="360" width="70" height="40" as="geometry" />
        </mxCell>
        <mxCell id="k5Xd2jel9zV4bqxeKcXj-151" value="Workout_trainer_customer:" style="text;html=1;align=center;verticalAlign=middle;resizable=0;points=[];autosize=1;strokeColor=none;fillColor=none;" vertex="1" parent="1">
          <mxGeometry x="-1020" y="316" width="170" height="30" as="geometry" />
        </mxCell>
        <mxCell id="k5Xd2jel9zV4bqxeKcXj-162" style="edgeStyle=orthogonalEdgeStyle;rounded=0;orthogonalLoop=1;jettySize=auto;html=1;entryX=0.75;entryY=0;entryDx=0;entryDy=0;" edge="1" parent="1" source="k5Xd2jel9zV4bqxeKcXj-158" target="28l4l87aZi_P1t-qfPdV-14">
          <mxGeometry relative="1" as="geometry" />
        </mxCell>
        <mxCell id="k5Xd2jel9zV4bqxeKcXj-158" value="&lt;u&gt;Transformation_id&lt;/u&gt;" style="rounded=0;whiteSpace=wrap;html=1;" vertex="1" parent="1">
          <mxGeometry x="640" y="60" width="110" height="40" as="geometry" />
        </mxCell>
        <mxCell id="k5Xd2jel9zV4bqxeKcXj-163" style="edgeStyle=orthogonalEdgeStyle;rounded=0;orthogonalLoop=1;jettySize=auto;html=1;entryX=0.5;entryY=0;entryDx=0;entryDy=0;" edge="1" parent="1" source="k5Xd2jel9zV4bqxeKcXj-159" target="28l4l87aZi_P1t-qfPdV-16">
          <mxGeometry relative="1" as="geometry">
            <Array as="points">
              <mxPoint x="805" y="120" />
              <mxPoint x="591" y="120" />
            </Array>
          </mxGeometry>
        </mxCell>
        <mxCell id="k5Xd2jel9zV4bqxeKcXj-159" value="&lt;u&gt;Customer_id&lt;/u&gt;" style="rounded=0;whiteSpace=wrap;html=1;" vertex="1" parent="1">
          <mxGeometry x="750" y="60" width="110" height="40" as="geometry" />
        </mxCell>
        <mxCell id="k5Xd2jel9zV4bqxeKcXj-164" style="edgeStyle=orthogonalEdgeStyle;rounded=0;orthogonalLoop=1;jettySize=auto;html=1;entryX=0.75;entryY=1;entryDx=0;entryDy=0;" edge="1" parent="1" source="k5Xd2jel9zV4bqxeKcXj-160" target="vSRh9-Tb_zqnj6JukAAc-31">
          <mxGeometry relative="1" as="geometry">
            <Array as="points">
              <mxPoint x="915" y="50" />
              <mxPoint x="469" y="50" />
              <mxPoint x="469" y="216" />
              <mxPoint x="60" y="216" />
            </Array>
          </mxGeometry>
        </mxCell>
        <mxCell id="k5Xd2jel9zV4bqxeKcXj-160" value="&lt;u&gt;Trainer_id&lt;/u&gt;" style="rounded=0;whiteSpace=wrap;html=1;" vertex="1" parent="1">
          <mxGeometry x="860" y="60" width="110" height="40" as="geometry" />
        </mxCell>
        <mxCell id="k5Xd2jel9zV4bqxeKcXj-161" value="Trainer_do_Transformation" style="text;html=1;strokeColor=none;fillColor=none;align=center;verticalAlign=middle;whiteSpace=wrap;rounded=0;" vertex="1" parent="1">
          <mxGeometry x="690" y="20" width="60" height="30" as="geometry" />
        </mxCell>
      </root>
    </mxGraphModel>
  </diagram>
</mxfile>
